# xmcd
#
# Track frame offsets:
#      150
#      14972
#      34097
#      69572
#      83125
#      101892
#      141407
#      155922
#      185322
#      206877
#      237222
#      258620
#      279970
#      300920
#      319790
#      337292
# 
# Disc length: 4728 seconds
#
# Revision: 2
# Processed by: cddbd v1.4PL0 Copyright (c) Steve Scherf et al.
#
# Submitted via: FreeRIP 1.21
#
DISCID=f5127610
DTITLE=Peter Frampton - Anthology: The History of Peter Frampton
DYEAR=1900
DGENRE=Rock
TTITLE0=From the Underworld - The Herd
TTITLE1=Natural Born Woman - Humble Pie
TTITLE2=Live with Me - Humble Pie
TTITLE3=Shine On - Humble Pie
TTITLE4=Stone Cold Fever - Humble Pie
TTITLE5=I Don't Need No Doctor (LIVE) - Humble Pie
TTITLE6=It's a Plain Shame
TTITLE7=All I Want to BE (Is by Your Side)
TTITLE8=Lines On My Face
TTITLE9=Do You Feel Like We Do
TTITLE10=Baby (Something's Happening)
TTITLE11=Baby I Love Your Way
TTITLE12=Show Me the Way (LIVE)
TTITLE13=I'm in You
TTITLE14=Signed, Sealed, Delivered (I'm Yours)
TTITLE15=I Can't Stand it no More
EXTD=
EXTT0=The Herd
EXTT1=(a/k/a Natural Born Boogie]\nHumble Pie
EXTT2=Humble Pie
EXTT3=Humble Pie
EXTT4=Humble Pie
EXTT5=Humble Pie
EXTT6=
EXTT7=
EXTT8=
EXTT9=
EXTT10=
EXTT11=
EXTT12=
EXTT13=
EXTT14=
EXTT15=
PLAYORDER=
